<?xml version="1.0" standalone="no"?>
<svg xmlns:xlink="http://www.w3.org/1999/xlink" id="wave" style="transform:rotate(180deg); transition: 0.3s" viewBox="0 0 1440 490" version="1.1"
  xmlns="http://www.w3.org/2000/svg">
  <defs>
    <linearGradient id="sw-gradient-0" x1="0" x2="0" y1="1" y2="0">
      <stop stop-color="rgba(86, 72, 122, 1)" offset="0%"/>
      <stop stop-color="rgba(132, 116, 169, 1)" offset="100%"/>
    </linearGradient>
  </defs>
  <path style="transform:translate(0, 0px); opacity:1" fill="url(#sw-gradient-0)" d="M0,0L34.3,8.2C68.6,16,137,33,206,106.2C274.3,180,343,310,411,318.5C480,327,549,212,617,196C685.7,180,754,261,823,318.5C891.4,376,960,408,1029,424.7C1097.1,441,1166,441,1234,432.8C1302.9,425,1371,408,1440,408.3C1508.6,408,1577,425,1646,424.7C1714.3,425,1783,408,1851,343C1920,278,1989,163,2057,163.3C2125.7,163,2194,278,2263,285.8C2331.4,294,2400,196,2469,163.3C2537.1,131,2606,163,2674,155.2C2742.9,147,2811,98,2880,73.5C2948.6,49,3017,49,3086,57.2C3154.3,65,3223,82,3291,138.8C3360,196,3429,294,3497,310.3C3565.7,327,3634,261,3703,236.8C3771.4,212,3840,229,3909,196C3977.1,163,4046,82,4114,57.2C4182.9,33,4251,65,4320,65.3C4388.6,65,4457,33,4526,16.3C4594.3,0,4663,0,4731,65.3C4800,131,4869,261,4903,326.7L4937.1,392L4937.1,490L4902.9,490C4868.6,490,4800,490,4731,490C4662.9,490,4594,490,4526,490C4457.1,490,4389,490,4320,490C4251.4,490,4183,490,4114,490C4045.7,490,3977,490,3909,490C3840,490,3771,490,3703,490C3634.3,490,3566,490,3497,490C3428.6,490,3360,490,3291,490C3222.9,490,3154,490,3086,490C3017.1,490,2949,490,2880,490C2811.4,490,2743,490,2674,490C2605.7,490,2537,490,2469,490C2400,490,2331,490,2263,490C2194.3,490,2126,490,2057,490C1988.6,490,1920,490,1851,490C1782.9,490,1714,490,1646,490C1577.1,490,1509,490,1440,490C1371.4,490,1303,490,1234,490C1165.7,490,1097,490,1029,490C960,490,891,490,823,490C754.3,490,686,490,617,490C548.6,490,480,490,411,490C342.9,490,274,490,206,490C137.1,490,69,490,34,490L0,490Z"/>
</svg>